<?xml version="1.0" encoding="iso-8859-1"?>
<!-- Generator: Adobe Illustrator 19.0.0, SVG Export Plug-In . SVG Version: 6.00 Build 0)  -->
<svg version="1.1" id="Layer_1" xmlns="http://www.w3.org/2000/svg" xmlns:xlink="http://www.w3.org/1999/xlink" x="0px" y="0px"
	 viewBox="0 0 512.001 512.001" style="enable-background:new 0 0 512.001 512.001;" xml:space="preserve">
<circle style="fill:#F2D6A8;" cx="255.996" cy="255.997" r="234.551"/>
<path style="fill:#EDC07B;" d="M421.855,90.147c-45.799-45.801-105.828-68.701-165.854-68.701v469.11
	c60.027,0,120.056-22.9,165.856-68.7C513.455,330.257,513.455,181.744,421.855,90.147z"/>
<path style="fill:#E49429;" d="M490.555,234.556H307.773l129.245-129.245c8.374-8.375,8.374-21.954,0-30.328
	c-8.374-8.375-21.953-8.375-30.328,0L277.446,204.229V21.446c0-11.843-9.602-21.445-21.445-21.445
	c-11.843,0-21.445,9.602-21.445,21.445v182.783L105.309,74.983c-8.375-8.375-21.954-8.374-30.328,0s-8.374,21.953,0,30.328
	l129.245,129.245H21.445C9.602,234.555,0,244.157,0,256c0,11.845,9.602,21.445,21.445,21.445H204.23L74.982,406.693
	c-8.375,8.374-8.375,21.953,0,30.328c4.188,4.189,9.676,6.282,15.163,6.282c5.488,0,10.977-2.093,15.164-6.282l129.248-129.248
	v182.782c0,11.843,9.602,21.445,21.445,21.445c11.843,0,21.445-9.602,21.445-21.445V307.775L406.692,437.02
	c4.187,4.186,9.676,6.281,15.164,6.281c5.488,0,10.977-2.094,15.163-6.283c8.374-8.374,8.374-21.951,0-30.328L307.775,277.445
	h182.782c11.843,0,21.445-9.6,21.445-21.445C512,244.157,502.398,234.556,490.555,234.556z"/>
<path style="fill:#B77220;" d="M490.555,234.556H307.773l129.245-129.245c8.374-8.375,8.374-21.954,0-30.328
	c-8.374-8.375-21.953-8.375-30.328,0L277.446,204.229V21.446c0-11.843-9.602-21.445-21.445-21.445c-0.001,0-0.001,0-0.001,0v256.001
	h234.556H256.001v255.998c0,0,0,0,0.001,0c11.843,0,21.445-9.602,21.445-21.445V307.775L406.692,437.02
	c4.187,4.186,9.676,6.281,15.164,6.281c5.488,0,10.977-2.094,15.163-6.283c8.374-8.374,8.374-21.951,0-30.328L307.775,277.445
	h182.782c11.843,0,21.445-9.6,21.445-21.445C512,244.157,502.398,234.556,490.555,234.556z"/>
<g>
	<path style="fill:#A61B67;" d="M315.864,421.969c-5.644,0-11.171-2.292-15.164-6.282c-3.99-3.993-6.281-9.519-6.281-15.163
		c0-5.646,2.29-11.173,6.281-15.164c3.993-3.993,9.52-6.283,15.164-6.283c5.646,0,11.171,2.29,15.163,6.283
		c3.992,3.99,6.283,9.519,6.283,15.164c0,5.644-2.292,11.17-6.283,15.163C327.035,419.678,321.51,421.969,315.864,421.969z"/>
	<path style="fill:#A61B67;" d="M196.138,132.921c-5.644,0-11.173-2.29-15.166-6.281c-3.99-3.993-6.279-9.52-6.279-15.164
		c0-5.644,2.289-11.171,6.279-15.162c3.992-3.99,9.519-6.283,15.166-6.283c5.644,0,11.17,2.293,15.16,6.283
		c3.993,3.99,6.283,9.517,6.283,15.162c0,5.646-2.29,11.171-6.283,15.164C207.308,130.631,201.783,132.921,196.138,132.921z"/>
	<path style="fill:#A61B67;" d="M400.524,337.311c-5.646,0-11.174-2.29-15.166-6.283c-3.992-3.992-6.281-9.519-6.281-15.162
		c0-5.644,2.289-11.171,6.281-15.164c3.992-3.992,9.52-6.283,15.166-6.283c5.644,0,11.17,2.292,15.163,6.283
		c3.99,3.993,6.281,9.52,6.281,15.164c0,5.643-2.29,11.17-6.281,15.162C411.696,335.021,406.17,337.311,400.524,337.311z"/>
</g>
<path style="fill:#C01E77;" d="M111.477,217.581c-5.646,0-11.173-2.29-15.164-6.282c-3.99-3.992-6.281-9.519-6.281-15.162
	c0-5.644,2.29-11.174,6.281-15.165c3.993-3.992,9.52-6.282,15.164-6.282c5.644,0,11.171,2.29,15.163,6.282
	c3.992,3.992,6.282,9.519,6.282,15.165c0,5.643-2.29,11.17-6.282,15.162C122.65,215.29,117.123,217.581,111.477,217.581z"/>
<g>
	<path style="fill:#A61B67;" d="M400.524,217.581c-5.647,0-11.174-2.29-15.166-6.281c-3.992-3.993-6.281-9.519-6.281-15.164
		c0-5.646,2.289-11.173,6.281-15.164c3.992-3.992,9.52-6.281,15.166-6.281c5.644,0,11.17,2.289,15.163,6.281
		c3.99,3.992,6.281,9.519,6.281,15.164c0,5.644-2.29,11.171-6.281,15.164C411.696,215.292,406.17,217.581,400.524,217.581z"/>
	<path style="fill:#A61B67;" d="M111.477,337.311c-5.644,0-11.171-2.29-15.164-6.283c-3.99-3.992-6.281-9.516-6.281-15.162
		c0-5.646,2.29-11.174,6.281-15.164c3.992-3.99,9.519-6.281,15.164-6.281c5.646,0,11.173,2.29,15.163,6.281
		c3.992,3.99,6.282,9.519,6.282,15.164s-2.29,11.171-6.282,15.162C122.648,335.021,117.121,337.311,111.477,337.311z"/>
	<path style="fill:#A61B67;" d="M315.864,132.921c-5.646,0-11.174-2.29-15.164-6.281c-3.99-3.993-6.281-9.519-6.281-15.164
		c0-5.644,2.29-11.171,6.281-15.163c3.992-3.992,9.519-6.282,15.164-6.282c5.646,0,11.171,2.29,15.163,6.282
		c3.992,3.992,6.283,9.52,6.283,15.163c0,5.646-2.292,11.171-6.283,15.164C327.035,130.631,321.51,132.921,315.864,132.921z"/>
	<path style="fill:#A61B67;" d="M196.138,421.969c-5.646,0-11.173-2.292-15.166-6.282c-3.99-3.993-6.279-9.519-6.279-15.163
		c0-5.646,2.289-11.173,6.279-15.164c3.993-3.993,9.52-6.281,15.166-6.281c5.644,0,11.17,2.289,15.16,6.281
		c3.993,3.99,6.283,9.517,6.283,15.164c0,5.644-2.29,11.173-6.283,15.163C207.309,419.678,201.783,421.969,196.138,421.969z"/>
</g>
<path style="fill:#A8967C;" d="M255.998,512.001c-68.38,0-132.666-26.628-181.017-74.979S0,324.382,0,256.001
	S26.63,123.334,74.982,74.983C123.335,26.631,187.62,0.001,256.001,0.001s132.668,26.63,181.019,74.982
	C485.371,123.332,512,187.619,512,256s-26.629,132.669-74.98,181.02C388.667,485.372,324.38,512.001,255.998,512.001z
	 M256.001,42.891c-56.922,0-110.439,22.168-150.69,62.419S42.89,199.076,42.89,256.001s22.167,110.442,62.418,150.693
	c40.249,40.248,93.766,62.416,150.69,62.416c56.925,0,110.442-22.168,150.693-62.419c40.251-40.248,62.418-93.766,62.418-150.69
	s-22.166-110.44-62.416-150.691S312.923,42.891,256.001,42.891z"/>
<path style="fill:#9B8568;" d="M512,256.001c0-68.381-26.629-132.668-74.98-181.017C388.667,26.631,324.382,0.002,256.002,0.001
	v42.89c56.922,0.001,110.439,22.17,150.69,62.419c40.251,40.251,62.418,93.766,62.418,150.69s-22.167,110.442-62.418,150.69
	c-40.249,40.249-93.766,62.419-150.69,62.419v42.89c68.38,0,132.668-26.63,181.017-74.979C485.371,388.669,512,324.382,512,256.001z
	"/>
<g>
</g>
<g>
</g>
<g>
</g>
<g>
</g>
<g>
</g>
<g>
</g>
<g>
</g>
<g>
</g>
<g>
</g>
<g>
</g>
<g>
</g>
<g>
</g>
<g>
</g>
<g>
</g>
<g>
</g>
</svg>
